<?xml version="1.0" encoding="UTF-8" standalone="no"?>
<svg
   height="560"
   viewBox="0 0 1920 560"
   width="1920"
   version="1.1"
   id="svg23"
   sodipodi:docname="bibliography-builder-banner.svg"
   inkscape:version="1.4.3 (0d15f75, 2025-12-25)"
   xmlns:inkscape="http://www.inkscape.org/namespaces/inkscape"
   xmlns:sodipodi="http://sodipodi.sourceforge.net/DTD/sodipodi-0.dtd"
   xmlns="http://www.w3.org/2000/svg"
   xmlns:svg="http://www.w3.org/2000/svg">
  <defs
     id="defs23" />
  <sodipodi:namedview
     id="namedview23"
     pagecolor="#ffffff"
     bordercolor="#000000"
     borderopacity="0.25"
     inkscape:showpageshadow="2"
     inkscape:pageopacity="0.0"
     inkscape:pagecheckerboard="0"
     inkscape:deskcolor="#d1d1d1"
     inkscape:zoom="0.53854167"
     inkscape:cx="854.1586"
     inkscape:cy="252.53385"
     inkscape:window-width="1190"
     inkscape:window-height="661"
     inkscape:window-x="2"
     inkscape:window-y="267"
     inkscape:window-maximized="0"
     inkscape:current-layer="svg23" />
  <path
     d="m0 0h1920v560h-1920z"
     fill="#f5f3ef"
     id="path1" />
  <g
     fill="none"
     opacity=".14"
     stroke="#2d3136"
     stroke-width="2"
     transform="translate(-154.90909 28.363636)"
     id="g12">
    <path
       d="m1460 1146h-1000l-500-866 500-866h1000l500 866z"
       id="path2" />
    <path
       d="m1340 938h-760l-380-658 380-658h760l380 658z"
       id="path3" />
    <path
       d="m1240 765h-560l-280-485 280-485h560l280 485z"
       id="path4" />
    <path
       d="m1160 626h-400l-200-346 200-346h400l200 346z"
       id="path5" />
    <path
       d="m1100 522h-280l-140-242 140-242h280l140 242z"
       id="path6" />
    <path
       d="m1055 445h-190l-95-165 95-165h190l95 165z"
       id="path7" />
    <path
       d="m1024 391h-128l-64-111 64-111h128l64 111z"
       id="path8" />
    <path
       d="m1003 354h-86l-43-74 43-74h86l43 74z"
       id="path9" />
    <path
       d="m989 330h-58l-29-50 29-50h58l29 50z"
       id="path10" />
    <path
       d="m980 315h-40l-20-35 20-35h40l20 35z"
       id="path11" />
    <path
       d="m974 304h-28l-14-24 14-24h28l14 24z"
       id="path12" />
  </g>
  <g
     transform="matrix(1.6366285,0.11444421,-0.11444421,1.6366285,53.429342,139.09345)"
     id="g14">
    <rect
       fill="#2d3136"
       height="148"
       rx="2"
       width="42"
       id="rect12"
       x="0"
       y="0" />
    <rect
       fill="#23272b"
       height="148"
       rx="1"
       width="5"
       id="rect13"
       x="0"
       y="0" />
    <rect
       fill="#ffffff"
       height="8"
       opacity="0.85"
       rx="1.5"
       width="20"
       x="12"
       y="68"
       id="rect14" />
  </g>
  <g
     stroke-width="1.64062"
     id="g21"
     transform="translate(-135.55126,25.996132)">
    <rect
       fill="#7b8fa1"
       height="255.9375"
       rx="1.640625"
       width="22.96875"
       x="247.34375"
       y="104.1875"
       id="rect15" />
    <rect
       fill="#2d3136"
       height="255.9375"
       rx="3.28125"
       width="65.625"
       x="263.75"
       y="104.1875"
       id="rect16" />
    <rect
       fill="#23272b"
       height="255.9375"
       rx="1.640625"
       width="8.203125"
       x="263.75"
       y="104.1875"
       id="rect17" />
    <rect
       fill="#ffffff"
       height="13.125"
       opacity="0.85"
       rx="2.4609375"
       width="32.8125"
       x="283.4375"
       y="222.3125"
       id="rect18" />
    <rect
       fill="#2d3136"
       height="236.25"
       rx="3.28125"
       width="68.90625"
       x="335.9375"
       y="123.875"
       id="rect19" />
    <rect
       fill="#23272b"
       height="236.25"
       rx="1.640625"
       width="8.203125"
       x="335.9375"
       y="123.875"
       id="rect20" />
    <rect
       fill="#ffffff"
       height="13.125"
       opacity="0.85"
       rx="2.4609375"
       width="32.8125"
       x="355.625"
       y="232.15625"
       id="rect21" />
  </g>
  <rect
     fill="#c4973e"
     height="7"
     rx="1.0933368"
     width="1692.4855"
     x="16.448755"
     y="385.99612"
     id="rect22"
     style="stroke-width:1.04563" />
  <text
     style="font-style:italic;font-weight:400;font-size:52px;font-family:'Libre Baskerville', Baskerville, 'Liberation Serif', 'Times New Roman', serif;text-anchor:end;fill:#3d4a57"
     x="681.63055"
     y="458.8143"
     id="text22">The library will endure;</text>
  <text
     fill="#3d4a57"
     font-family="'Libre Baskerville', Baskerville, 'Liberation Serif', 'Times New Roman', serif"
     font-size="52px"
     font-style="italic"
     font-weight="400"
     x="811.53955"
     y="463.17792"
     id="text23">it is the universe...</text>
  <path
     fill="#B91C1C"
     d="m 318.53195,411.00425 c -1.19266,-1.14899 -4.10107,-1.74831 -6.46312,-1.33181 -4.67653,0.82462 -9.27817,-3.93314 -10.59025,-10.94951 -2.03126,-10.86258 16.83756,-46.73231 31.79389,-60.44027 8.29685,-7.60434 38.86596,-26.93774 44.0335,-27.84894 3.03903,-0.53587 5.3765,-1.8191 5.19442,-2.85163 -0.18207,-1.03253 1.08859,-1.67689 2.82371,-1.43194 1.73511,0.24497 4.81637,-1.07234 6.8588,-2.86183 2.01931,-1.92047 5.22233,-3.71 7.10626,-4.04219 7.57858,-1.33634 31.65006,-13.80078 36.48252,-18.89099 2.83407,-2.98522 10.87272,-10.43915 17.86371,-16.5643 6.99095,-6.12514 14.51711,-13.76815 16.72478,-16.98449 5.82035,-8.47963 11.12792,-11.3739 28.05277,-15.29744 11.50639,-2.66741 15.67201,-2.93242 17.55655,-1.11691 1.39898,1.34777 4.09001,1.51802 6.20363,0.39248 2.41541,-1.28627 3.22873,-0.95728 2.30446,0.93213 -2.25657,4.61284 15.20419,1.32024 33.13484,-6.24828 37.22428,-15.71234 54.3326,-20.22055 70.95184,-18.69641 8.81771,0.80866 10.58946,2.00618 11.62074,7.85444 1.73326,9.829 0.20696,11.76525 -18.56299,23.54888 -20.53966,12.89463 -23.00681,17.46619 -10.87836,20.15723 4.87328,1.08125 11.80599,4.26641 15.40602,7.07812 14.39963,11.24635 8.9157,24.9809 -17.86034,44.73147 -16.82591,12.41113 -18.89031,14.72488 -14.87853,16.67568 11.36904,5.5284 19.7451,14.00886 17.82802,18.05027 -1.56738,3.30416 -4.70928,4.62067 -15.05418,6.30791 -22.74239,3.70927 -50.01562,6.22926 -64.96182,6.00234 -15.39614,-0.23376 -21.73925,-4.5129 -18.8108,-12.69001 2.08073,-5.81007 18.47534,-18.7692 30.60856,-24.19455 5.52236,-2.46933 17.12018,-9.73953 25.77295,-16.15602 11.77128,-8.72905 15.49643,-12.9279 14.79559,-16.677 -1.22466,-6.55092 -3.64273,-7.62721 -21.59013,-9.60995 -15.40859,-1.70226 -16.80269,-2.74706 -17.25847,-12.9343 -0.14533,-3.24755 -1.88859,-5.60741 -3.88258,-5.2558 -5.41474,0.95478 -46.94525,19.63062 -47.94055,21.55836 -0.47413,0.91828 -2.34079,1.93036 -4.14818,2.24906 -5.13271,0.90505 -30.84662,17.46489 -50.12657,32.28164 -26.1694,20.11136 -29.79495,23.16788 -29.55254,24.91438 0.12187,0.87802 -3.17757,4.1163 -7.3321,7.19617 -4.15456,3.07989 -12.28541,11.50502 -18.06861,18.72253 -5.7832,7.21752 -14.14035,16.33458 -18.57144,20.26015 -4.43108,3.92557 -9.70993,9.99714 -11.73078,13.49238 -2.02082,3.49523 -5.93231,6.88189 -8.69218,7.52588 -18.48676,4.31382 -24.23144,5.00395 -26.16304,3.14307 z M 646.9244,365.7258 c -13.45911,-1.10535 -17.96142,-6.86467 -17.66404,-22.5958 0.14733,-7.79351 1.93653,-11.37788 7.3827,-14.78997 8.80568,-5.51687 18.75805,-7.49688 28.01957,-5.57442 3.84465,0.79804 9.51047,1.03276 12.59074,0.5216 3.40584,-0.5652 5.45746,0.34924 5.23554,2.33363 -0.20067,1.79466 0.96351,4.61599 2.5871,6.26963 4.00471,4.0788 -0.38947,23.94654 -6.31164,28.53743 -5.99982,4.65106 -17.14178,6.50501 -31.83997,5.2979 z m 68.57829,112.23899 c -13.94911,1.5214 -19.88685,-1.0708 -20.71339,-9.04276 -1.02143,-9.85165 11.39528,-24.01197 30.02458,-34.2408 16.22923,-8.91101 49.18197,-27.89656 54.45744,-31.37539 3.41871,-2.25441 13.33309,-8.00456 22.03196,-12.77812 15.70828,-8.62003 57.99446,-33.47788 79.75096,-46.88146 6.24713,-3.84864 13.52973,-7.96383 16.18363,-9.14487 10.0509,-4.47276 43.1227,-24.19339 54.9365,-32.75853 6.7673,-4.90636 13.4391,-9.1247 14.8262,-9.3741 1.3872,-0.2494 2.3111,-1.65002 2.0532,-3.1125 -0.2579,-1.46247 -2.4995,-2.301 -4.9812,-1.86339 -4.6105,0.81298 -9.1379,2.36363 -65.9544,22.58969 -17.95413,6.39148 -42.96012,14.96869 -55.56876,19.06043 l -22.92479,7.43956 -9.41228,-2.83858 c -11.57492,-3.4908 -30.82158,-0.67878 -38.23319,5.58605 -2.7483,2.32305 -4.89241,4.81616 -4.76471,5.54027 0.12769,0.72412 -1.82801,2.91362 -4.34599,4.86557 -2.51798,1.95195 -4.30686,5.08744 -3.97528,6.96778 0.4806,2.72536 -1.78566,3.83995 -11.17358,5.49532 -26.30307,4.63804 -34.96446,-7.4517 -21.32052,-29.75959 10.24054,-16.74331 16.57326,-20.94332 38.17629,-25.31939 14.39678,-2.91631 18.61403,-3.05517 23.94173,-0.78832 5.27029,2.24244 10.10085,2.10698 26.10763,-0.73207 10.80244,-1.91598 27.73076,-6.29996 37.61845,-9.74217 9.88767,-3.44221 26.85107,-9.05828 37.6965,-12.48013 10.8453,-3.42188 30.7738,-9.92996 44.2855,-14.46245 22.0022,-7.38059 42.88853,-13.98975 88.30673,-27.94339 13.1436,-4.03806 15.1541,-4.17886 23.1323,-1.62005 13.8145,4.43065 12.1592,16.45898 -3.8345,27.86378 -9.6182,6.85851 -7.4998,8.06958 7.278,4.16078 19.8782,-5.25795 32.1568,-3.99947 40.5879,4.15996 7.8795,7.62557 14.6279,7.61833 28.401,-0.0305 5.0149,-2.785 15.1698,-5.81717 26.1627,-7.81199 16.1508,-2.93077 19.1004,-2.84843 29.1853,0.81475 6.1703,2.24125 11.3507,4.8235 11.5121,5.73831 0.1613,0.91481 1.6104,1.43105 3.2202,1.14719 1.6098,-0.28387 5.4788,3.81999 8.5977,9.11969 4.8452,8.23282 5.0585,11.32228 1.4654,21.2185 -3.9006,10.74346 -5.0875,11.86062 -16.3804,15.41852 -16.6961,5.26024 -28.5684,3.88718 -34.5217,-3.99251 -3.2667,-4.32371 -3.6657,-7.53975 -1.4051,-11.32398 1.7365,-2.90688 2.0896,-5.62766 0.7848,-6.04618 -1.3049,-0.41849 -13.1975,2.19188 -26.428,5.80084 -13.2304,3.60895 -31.4213,8.56012 -40.4242,11.00262 -17.7493,4.81541 -32.0531,6.23833 -32.5817,3.24113 -0.1827,-1.03626 -3.0628,-2.88909 -6.4001,-4.11741 -3.3374,-1.22832 -6.5608,-4.01476 -7.1632,-6.19211 -0.9186,-3.31976 -3.2846,-3.6699 -14.6571,-2.16911 -16.5211,2.18025 -34.4672,8.14547 -44.5275,14.80078 -8.82873,5.84058 -8.44713,5.60115 -32.52753,20.40797 -23.6163,14.52148 -25.8426,15.92806 -31.1008,19.64964 -2.3645,1.67357 -5.1644,3.19542 -6.2218,3.38188 -1.0575,0.18647 -4.5962,2.24987 -7.8639,4.58533 -11.006,7.86624 -15.43673,10.49021 -18.67843,11.06182 -1.7745,0.3129 -3.6191,1.29259 -4.0992,2.17712 -0.7826,1.44208 -13.4979,9.51513 -38.67959,24.55822 -4.77523,2.85262 -10.24134,6.383 -12.14695,7.84528 -1.90561,1.46227 -8.15286,4.86879 -13.88282,7.57004 -5.72993,2.70124 -11.05557,6.21453 -11.83474,7.80732 -0.77915,1.59277 -3.17517,3.20603 -5.32444,3.58502 -4.49244,0.79215 -36.0282,24.39224 -35.62787,26.66245 0.14614,0.82876 -1.40836,1.80202 -3.45443,2.16281 -2.04611,0.36079 -7.86705,3.4435 -12.93548,6.85047 -5.0684,3.40697 -10.25721,6.24658 -11.5307,6.31025 -1.27347,0.0637 -7.17946,0.64627 -13.12443,1.29468 z"
     id="path23"
     style="fill:#4f4f4f;fill-opacity:1;stroke-width:2.47993" />
  <!-- Vertical gold separator -->
  <!-- Feature panel heading -->
  <text
     x="1219.3578"
     y="163.99612"
     font-family="'Libre Baskerville', Baskerville, 'Liberation Serif', 'Times New Roman', serif"
     font-size="33px"
     font-weight="700"
     fill="#2d3136"
     id="text1"
     style="font-weight:700;font-size:33px;font-family:'Libre Baskerville', Baskerville, 'Liberation Serif', 'Times New Roman', serif;fill:#2d3136"><tspan
       style="font-style:normal;font-variant:normal;font-weight:bold;font-stretch:normal;font-size:32px;font-family:'Libre Baskerville', Baskerville, 'Liberation Serif', 'Times New Roman', serif;-inkscape-font-specification:'Libre Baskerville, Baskerville, Liberation Serif, Times New Roman, serif, Bold';font-variant-ligatures:normal;font-variant-caps:normal;font-variant-numeric:normal;font-variant-east-asian:normal"
       id="tspan29">The Bibliography Builder Block</tspan></text>
  <!-- Gold hairline under heading -->
  <rect
     x="1219.3578"
     y="177.99612"
     width="488"
     height="1.5"
     fill="#c4973e"
     id="rect2" />
  <!-- Feature list -->
  <text
     x="1241.6401"
     y="215.13925"
     font-family="'Libre Baskerville', Baskerville, 'Liberation Serif', 'Times New Roman', serif"
     font-size="25px"
     font-weight="400"
     id="text3"><tspan
   style="font-weight:bold"
   id="tspan24">Paste DOIs</tspan><tspan
   style="font-weight:bold"
   id="tspan2">•</tspan> Citations resolved instantly</text>
  <text
     x="1241.6401"
     y="252.13925"
     font-family="'Libre Baskerville', Baskerville, 'Liberation Serif', 'Times New Roman', serif"
     font-size="25px"
     font-weight="400"
     id="text5"><tspan
   style="font-weight:bold"
   id="tspan25">Nine styles:</tspan> Chicago, APA 7, MLA 9, IEEE</text>
  <text
     x="1241.6401"
     y="289.13925"
     font-family="'Libre Baskerville', Baskerville, 'Liberation Serif', 'Times New Roman', serif"
     font-size="25px"
     font-weight="400"
     id="text7"><tspan
   style="font-weight:bold"
   id="tspan26">Zotero-ready</tspan><tspan
   style="font-weight:bold"
   id="tspan1">•</tspan> COinS &amp; JSON-LD</text>
  <text
     x="1241.6401"
     y="326.13925"
     font-family="'Libre Baskerville', Baskerville, 'Liberation Serif', 'Times New Roman', serif"
     font-size="25px"
     font-weight="400"
     id="text9"><tspan
   style="font-weight:bold"
   id="tspan27">Export:</tspan> BibTeX, CSL-JSON, or RIS</text>
  <text
     x="1241.6401"
     y="363.13925"
     font-family="'Libre Baskerville', Baskerville, 'Liberation Serif', 'Times New Roman', serif"
     font-size="25px"
     font-weight="400"
     id="text11"><tspan
   style="font-weight:bold"
   id="tspan28">Portable Semantic HTML</tspan> • No Lock-In</text>
</svg>
