<?xml version="1.0" encoding="UTF-8" standalone="no"?>
<svg
   height="560"
   viewBox="0 0 1920 560"
   width="1920"
   version="1.1"
   id="svg23"
   sodipodi:docname="bibliography-builder-banner.svg"
   inkscape:version="1.4.3 (0d15f75, 2025-12-25)"
   xml:space="preserve"
   xmlns:inkscape="http://www.inkscape.org/namespaces/inkscape"
   xmlns:sodipodi="http://sodipodi.sourceforge.net/DTD/sodipodi-0.dtd"
   xmlns="http://www.w3.org/2000/svg"
   xmlns:svg="http://www.w3.org/2000/svg"><defs
     id="defs23" /><sodipodi:namedview
     id="namedview23"
     pagecolor="#ffffff"
     bordercolor="#000000"
     borderopacity="0.25"
     inkscape:showpageshadow="2"
     inkscape:pageopacity="0.0"
     inkscape:pagecheckerboard="0"
     inkscape:deskcolor="#d1d1d1"
     inkscape:zoom="0.53854167"
     inkscape:cx="700.96711"
     inkscape:cy="419.65183"
     inkscape:window-width="1190"
     inkscape:window-height="661"
     inkscape:window-x="68"
     inkscape:window-y="526"
     inkscape:window-maximized="0"
     inkscape:current-layer="g2" /><path
     d="m0 0h1920v560h-1920z"
     fill="#f5f3ef"
     id="path1" /><g
     fill="none"
     opacity=".14"
     stroke="#2d3136"
     stroke-width="2"
     transform="translate(-154.90909 28.363636)"
     id="g12"><path
       d="m1460 1146h-1000l-500-866 500-866h1000l500 866z"
       id="path2" /><path
       d="m1340 938h-760l-380-658 380-658h760l380 658z"
       id="path3" /><path
       d="m1240 765h-560l-280-485 280-485h560l280 485z"
       id="path4" /><path
       d="m1160 626h-400l-200-346 200-346h400l200 346z"
       id="path5" /><path
       d="m1100 522h-280l-140-242 140-242h280l140 242z"
       id="path6" /><path
       d="m1055 445h-190l-95-165 95-165h190l95 165z"
       id="path7" /><path
       d="m1024 391h-128l-64-111 64-111h128l64 111z"
       id="path8" /><path
       d="m1003 354h-86l-43-74 43-74h86l43 74z"
       id="path9" /><path
       d="m989 330h-58l-29-50 29-50h58l29 50z"
       id="path10" /><path
       d="m980 315h-40l-20-35 20-35h40l20 35z"
       id="path11" /><path
       d="m974 304h-28l-14-24 14-24h28l14 24z"
       id="path12" /></g><g
     transform="matrix(1.6366285,0.11444421,-0.11444421,1.6366285,53.429342,139.09345)"
     id="g14"><rect
       fill="#2d3136"
       height="148"
       rx="2"
       width="42"
       id="rect12"
       x="0"
       y="0" /><rect
       fill="#23272b"
       height="148"
       rx="1"
       width="5"
       id="rect13"
       x="0"
       y="0" /><rect
       fill="#ffffff"
       height="8"
       opacity="0.85"
       rx="1.5"
       width="20"
       x="12"
       y="68"
       id="rect14" /></g><g
     stroke-width="1.64062"
     id="g21"
     transform="translate(-135.55126,25.996132)"><rect
       fill="#7b8fa1"
       height="255.9375"
       rx="1.640625"
       width="22.96875"
       x="247.34375"
       y="104.1875"
       id="rect15" /><rect
       fill="#2d3136"
       height="255.9375"
       rx="3.28125"
       width="65.625"
       x="263.75"
       y="104.1875"
       id="rect16" /><rect
       fill="#23272b"
       height="255.9375"
       rx="1.640625"
       width="8.203125"
       x="263.75"
       y="104.1875"
       id="rect17" /><rect
       fill="#ffffff"
       height="13.125"
       opacity="0.85"
       rx="2.4609375"
       width="32.8125"
       x="283.4375"
       y="222.3125"
       id="rect18" /><rect
       fill="#2d3136"
       height="236.25"
       rx="3.28125"
       width="68.90625"
       x="335.9375"
       y="123.875"
       id="rect19" /><rect
       fill="#23272b"
       height="236.25"
       rx="1.640625"
       width="8.203125"
       x="335.9375"
       y="123.875"
       id="rect20" /><rect
       fill="#ffffff"
       height="13.125"
       opacity="0.85"
       rx="2.4609375"
       width="32.8125"
       x="355.625"
       y="232.15625"
       id="rect21" /></g><rect
     fill="#c4973e"
     height="7"
     rx="1.0933368"
     width="1692.4855"
     x="16.448755"
     y="385.99612"
     id="rect22"
     style="stroke-width:1.04563" /><text
     style="font-style:italic;font-weight:400;font-size:52px;font-family:'Libre Baskerville', Baskerville, 'Liberation Serif', 'Times New Roman', serif;text-anchor:end;fill:#3d4a57"
     x="681.63055"
     y="458.8143"
     id="text22">The library will endure;</text><text
     fill="#3d4a57"
     font-family="'Libre Baskerville', Baskerville, 'Liberation Serif', 'Times New Roman', serif"
     font-size="52px"
     font-style="italic"
     font-weight="400"
     x="811.53955"
     y="463.17792"
     id="text23">it is the universe...</text><!-- Vertical gold separator --><!-- Feature panel heading --><text
     x="1219.3578"
     y="163.99612"
     font-family="'Libre Baskerville', Baskerville, 'Liberation Serif', 'Times New Roman', serif"
     font-size="33px"
     font-weight="700"
     fill="#2d3136"
     id="text1"
     style="font-weight:700;font-size:33px;font-family:'Libre Baskerville', Baskerville, 'Liberation Serif', 'Times New Roman', serif;fill:#2d3136"><tspan
       style="font-style:normal;font-variant:normal;font-weight:bold;font-stretch:normal;font-size:32px;font-family:'Libre Baskerville', Baskerville, 'Liberation Serif', 'Times New Roman', serif;-inkscape-font-specification:'Libre Baskerville, Baskerville, Liberation Serif, Times New Roman, serif, Bold';font-variant-ligatures:normal;font-variant-caps:normal;font-variant-numeric:normal;font-variant-east-asian:normal"
       id="tspan29">The Bibliography Builder Block</tspan></text><!-- Gold hairline under heading --><rect
     x="1219.3578"
     y="177.99612"
     width="488"
     height="1.5"
     fill="#c4973e"
     id="rect2" /><!-- Feature list --><text
     x="1241.6401"
     y="215.13925"
     font-family="'Libre Baskerville', Baskerville, 'Liberation Serif', 'Times New Roman', serif"
     font-size="25px"
     font-weight="400"
     id="text3"><tspan
   style="font-weight:bold"
   id="tspan24">Paste DOIs</tspan><tspan
   style="font-weight:bold"
   id="tspan2">•</tspan> Citations resolved instantly</text><text
     x="1241.6401"
     y="252.13925"
     font-family="'Libre Baskerville', Baskerville, 'Liberation Serif', 'Times New Roman', serif"
     font-size="25px"
     font-weight="400"
     id="text5"><tspan
   style="font-weight:bold"
   id="tspan25">Nine styles:</tspan> Chicago, APA 7, MLA 9, IEEE</text><text
     x="1241.6401"
     y="289.13925"
     font-family="'Libre Baskerville', Baskerville, 'Liberation Serif', 'Times New Roman', serif"
     font-size="25px"
     font-weight="400"
     id="text7"><tspan
   style="font-weight:bold"
   id="tspan26">Zotero-ready</tspan><tspan
   style="font-weight:bold"
   id="tspan1">•</tspan> COinS &amp; JSON-LD</text><text
     x="1241.6401"
     y="326.13925"
     font-family="'Libre Baskerville', Baskerville, 'Liberation Serif', 'Times New Roman', serif"
     font-size="25px"
     font-weight="400"
     id="text9"><tspan
   style="font-weight:bold"
   id="tspan27">Export:</tspan> BibTeX, CSL-JSON, or RIS</text><text
     x="1241.6401"
     y="363.13925"
     font-family="'Libre Baskerville', Baskerville, 'Liberation Serif', 'Times New Roman', serif"
     font-size="25px"
     font-weight="400"
     id="text11"><tspan
   style="font-weight:bold"
   id="tspan28">Portable Semantic HTML</tspan> • No Lock-In</text><path
     id="path23"
     transform="matrix(1.5,0,0,1.5,-10,-55)"
     style="fill:#1a1a1a;fill-opacity:1"
     d="M 43.953911,233.69425 C 42.294108,232.49914 40.706768,228.10389 40.972215,225.43811 C 41.107957,224.07491 41.276449,222.39706 41.346642,221.70956 C 41.549225,219.72536 54.65896,207.45956 56.577093,207.45956 C 57.070537,207.45956 57.474265,207.03827 57.474265,206.52335 C 57.474265,206.00843 61.074265,202.80221 65.474265,199.3984 C 69.874265,195.9946 73.474265,192.9226 73.474265,192.57174 C 73.474265,192.22088 74.327727,191.48961 75.370846,190.94669 C 77.756586,189.70496 92.392102,177.83486 98.829722,171.92042 C 101.50023,169.46695 103.97523,167.45395 104.32972,167.44709 C 104.68422,167.44024 106.8385,165.70286 109.11701,163.58625 C 111.39552,161.46965 115.33302,158.24897 117.86701,156.4292 C 120.401,154.60943 122.47426,152.7468 122.47426,152.29004 C 122.47426,151.83328 122.92426,151.45956 123.47426,151.45956 C 124.02426,151.45956 125.29002,150.67206 126.28706,149.70956 C 127.2841,148.74706 130.31206,146.15956 133.01586,143.95956 C 143.84237,135.15036 150.99131,129.01327 151.30759,128.2568 C 151.49093,127.81832 152.05343,127.45956 152.55759,127.45956 C 153.06176,127.45956 154.31296,126.67206 155.33804,125.70956 C 156.36312,124.74706 158.95062,122.50306 161.08804,120.7229 C 163.22546,118.94273 167.13913,115.68023 169.78508,113.4729 C 172.43103,111.26556 175.01853,109.45956 175.53508,109.45956 C 176.05163,109.45956 176.47426,108.78456 176.47426,107.95956 C 176.47426,107.13456 176.92861,106.45956 177.48393,106.45956 C 178.23538,106.45956 190.30844,98.127626 194.40759,94.780096 C 194.64593,94.585466 194.38525,93.970546 193.82832,93.413616 C 193.14485,92.730146 191.86638,92.896076 189.89499,93.924126 C 188.28859,94.761836 186.57559,95.450006 186.08834,95.453396 C 185.60108,95.456786 181.55108,97.196176 177.08834,99.318706 C 161.03079,106.95586 153.82741,110.26651 144.97426,114.07824 C 140.02426,116.20946 135.82426,118.29213 135.64093,118.70638 C 135.45759,119.12063 134.75431,119.45956 134.07808,119.45956 C 133.40185,119.45956 130.51655,120.58456 127.66632,121.95956 C 124.81608,123.33456 122.17992,124.45956 121.80819,124.45956 C 121.43646,124.45956 118.39675,125.75776 115.05329,127.34445 C 102.58877,133.25965 97.569022,135.45956 96.536192,135.45956 C 95.952132,135.45956 95.474262,135.90956 95.474262,136.45956 C 95.474262,137.00956 94.664262,137.45956 93.674262,137.45956 C 92.684262,137.45956 91.446762,137.85146 90.924262,138.33045 C 88.638822,140.42558 84.51092,140.49622 82.489495,138.47479 C 79.239811,135.22511 80.141637,130.04394 84.754907,125.45956 C 87.548722,122.68324 101.95581,115.27008 108.97426,112.9975 C 110.07426,112.64132 119.07426,108.94817 128.97426,104.7905 C 138.87426,100.63283 147.87426,96.905056 148.97426,96.506566 C 150.07426,96.108076 153.94484,94.359476 157.57556,92.620796 C 161.20627,90.882116 164.68043,89.459556 165.29592,89.459556 C 165.91141,89.459556 168.79083,88.380316 171.69462,87.061256 C 183.79759,81.563426 200.06698,74.976506 203.7549,74.081156 C 208.91641,72.828046 225.93097,65.144146 232.08232,61.288286 C 240.30405,56.134646 247.23175,55.992386 248.09101,60.959556 C 248.18615,61.509556 248.40046,62.409556 248.56725,62.959556 C 249.23756,65.169906 247.02475,69.169596 243.03479,72.959556 C 237.76231,77.967756 222.72635,89.459556 221.44607,89.459556 C 220.9209,89.459556 219.92915,90.359556 219.24219,91.459556 C 218.55523,92.559556 217.46391,93.459556 216.81705,93.459556 C 216.17018,93.459556 215.49093,93.805106 215.30759,94.227446 C 214.91247,95.137686 193.79506,111.45956 193.01252,111.45956 C 192.71647,111.45956 191.67155,112.24706 190.69046,113.20956 C 188.61826,115.24249 187.4752,116.1247 169.47426,129.58417 C 162.04926,135.13591 154.82464,140.75404 153.41954,142.0689 C 152.01445,143.38376 150.37943,144.45956 149.78617,144.45956 C 149.19292,144.45956 148.47273,145.35742 148.18576,146.4548 C 147.73875,148.16414 148.02563,148.35928 150.18779,147.81661 C 151.57588,147.46822 155.69569,145.73385 159.34292,143.96245 C 174.29685,136.69959 177.65086,135.35469 192.97426,130.47691 C 209.77196,125.12982 217.39619,123.81223 220.84839,125.65979 C 221.98889,126.27017 227.54145,126.81779 233.18741,126.87673 C 242.6198,126.9752 243.57998,127.16549 245.02023,129.22173 C 246.96068,131.99211 251.96872,132.27269 253.35173,129.68851 C 254.31444,127.88967 259.15664,125.93736 269.97426,122.98654 C 273.27426,122.08637 277.35621,120.92455 279.04526,120.40471 C 280.73431,119.88488 283.04185,119.45956 284.17313,119.45956 C 286.9254,119.45956 293.27493,116.77799 296.97426,114.05331 C 300.73467,111.28364 306.76089,108.45956 308.91057,108.45956 C 309.8093,108.45956 311.69438,109.2129 313.09962,110.13366 C 315.08441,111.43414 315.53754,112.39315 315.13002,114.43075 C 314.22111,118.97533 315.5516,119.87711 321.1087,118.48298 C 327.24194,116.94431 330.82666,118.16311 332.25985,122.27436 C 333.09363,124.66613 332.92861,125.82768 331.39727,128.34576 C 330.35578,130.05835 329.00401,131.45956 328.39333,131.45956 C 327.78265,131.45956 326.08853,132.2971 324.62863,133.32075 C 323.16873,134.34441 320.34117,135.71135 318.34518,136.3584 C 314.15321,137.71732 312.00089,139.87071 311.12031,143.58685 C 310.24755,147.27004 306.27065,149.71285 303.106,148.50965 C 301.75267,147.99511 300.35157,146.64835 299.99244,145.51684 C 299.16511,142.91015 296.43684,142.89478 291.68442,145.47003 C 287.20181,147.89908 288.57286,147.02359 264.6869,162.70956 C 254.00856,169.72206 245.07308,175.45956 244.8303,175.45956 C 244.58751,175.45956 241.95229,177.25956 238.97426,179.45956 C 235.99623,181.65956 233.09044,183.45956 232.51696,183.45956 C 231.94347,183.45956 231.47426,183.80723 231.47426,184.23216 C 231.47426,184.65708 229.78676,185.89013 227.72426,186.97225 C 225.66176,188.05437 223.6144,189.5067 223.17457,190.19965 C 222.73474,190.8926 221.91582,191.45956 221.35475,191.45956 C 220.79367,191.45956 218.45353,192.72826 216.15444,194.2789 C 210.49387,198.0967 203.00308,201.45956 200.15947,201.45956 C 194.29432,201.45956 191.35984,192.41732 195.51195,187.13877 C 197.48319,184.63275 210.25413,176.39761 219.47426,171.68705 C 231.13923,165.72743 233.13387,164.57463 234.38134,163.07152 C 235.11713,162.18494 236.26224,161.45956 236.92602,161.45956 C 238.25017,161.45956 253.17982,153.154 254.8401,151.49372 C 255.40889,150.92493 256.54039,150.45956 257.35454,150.45956 C 260.61767,150.45956 275.65731,139.30928 274.26805,137.92002 C 273.97804,137.63001 270.23398,138.53746 265.94791,139.93658 C 258.42625,142.3919 258.069,142.41916 255.68239,140.71999 C 248.82521,135.83797 247.77952,135.95008 244.80036,141.88673 C 242.60616,146.25917 239.52231,148.41166 235.41539,148.43732 C 231.4291,148.46223 229.76495,147.39467 226.62385,142.79751 C 223.34408,137.99739 219.93831,139.35032 216.0124,147.01285 C 212.08863,154.67119 207.59741,157.86836 201.97426,157.0062 C 196.57777,156.17879 195.17419,154.13469 195.93402,148.20956 C 196.47694,143.97581 196.33376,143.45956 194.6166,143.45956 C 193.557,143.45956 186.38716,146.60956 178.68363,150.45956 C 170.98009,154.30956 164.22141,157.45956 163.66434,157.45956 C 163.10727,157.45956 159.02543,159.01158 154.59359,160.90848 C 150.16175,162.80539 144.94687,164.65547 143.00498,165.01978 C 141.06308,165.38408 139.47426,166.08206 139.47426,166.57085 C 139.47426,167.05964 138.91176,167.46141 138.22426,167.46368 C 136.28248,167.47008 113.35541,179.22259 111.03849,181.39922 C 109.90317,182.4658 108.52426,183.41854 107.97426,183.51641 C 106.3743,183.80112 98.474262,189.7159 98.474262,190.62908 C 98.474262,191.08584 97.799262,191.45956 96.974262,191.45956 C 96.149262,191.45956 95.474262,191.82578 95.474262,192.27339 C 95.474262,192.721 91.903852,195.9835 87.540022,199.52339 C 83.176189,203.06328 79.576189,206.52206 79.540023,207.20956 C 79.503856,207.89706 79.113814,208.45956 78.673263,208.45956 C 77.9623,208.45956 72.64943,213.71021 60.051154,226.86359 C 57.893443,229.11637 54.968443,231.74409 53.551154,232.70297 C 50.918419,234.48416 45.787057,235.01417 43.953911,233.69425 z M 620.79873,231.74172 C 616.7007,231.2284 615.12096,229.23739 615.28792,224.7962 C 615.49425,219.30783 619.793,212.75857 625.68264,208.95956 C 630.8135,205.64999 641.27683,198.44197 642.97426,197.04763 C 644.07426,196.14405 647.22426,193.95459 649.97426,192.18216 C 654.94017,188.98153 668.39226,179.46118 675.34466,174.22695 C 677.34094,172.72402 679.64926,171.17516 680.47426,170.78504 C 683.59868,169.30761 694.13368,161.70891 697.97426,158.16261 C 700.17426,156.13119 702.31176,154.46697 702.72426,154.46434 C 703.13676,154.46171 703.47426,153.78456 703.47426,152.95956 C 703.47426,152.13456 702.87078,151.45956 702.13319,151.45956 C 700.76293,151.45956 699.37913,151.87116 681.97426,157.45572 C 676.47426,159.22045 668.83056,161.5007 664.98826,162.52293 L 658.00226,164.38154 L 655.43354,161.92055 C 652.27461,158.8941 646.58401,158.57582 644.12925,161.2883 C 643.219,162.29411 642.47426,163.45125 642.47426,163.85973 C 642.47426,164.26821 641.79926,165.27742 640.97426,166.10242 C 640.14926,166.92742 639.47426,168.47027 639.47426,169.53099 C 639.47426,171.0684 638.76438,171.45956 635.97426,171.45956 C 628.1569,171.45956 626.27484,164.0097 631.34146,153.1213 C 635.14424,144.94895 637.18307,143.26205 643.63237,142.95196 C 647.93034,142.74531 649.15298,143.07618 650.57342,144.83034 C 651.97855,146.5656 653.3778,146.9575 658.13591,146.94844 C 661.347,146.94232 666.44926,146.17693 669.47426,145.24757 C 672.49926,144.31821 677.67426,142.88213 680.97426,142.05629 C 684.27426,141.23044 690.34926,139.59238 694.47426,138.41614 C 701.19133,136.50078 707.54754,134.89982 721.34817,131.64731 C 725.34194,130.70606 725.92859,130.82298 728.09817,132.99256 C 731.85487,136.74926 730.76637,143.17027 725.57664,147.86691 C 722.45569,150.69133 723.00474,151.55827 727.46296,150.84538 C 733.45993,149.88642 736.93517,151.75946 738.95062,157.03683 C 740.8342,161.96891 742.77973,162.61597 747.13847,159.76001 C 748.72553,158.72013 751.80671,158.04088 755.07672,158.01001 C 759.881,157.96466 760.72701,158.29426 763.4477,161.27128 C 765.11231,163.09272 766.47426,165.00522 766.47426,165.52128 C 766.47426,166.03733 766.86571,166.45956 767.34415,166.45956 C 767.8226,166.45956 768.7292,169.07802 769.35883,172.27837 C 770.33693,177.24995 770.2414,178.96078 768.70271,184.02837 C 767.0323,189.52981 766.63341,190.02651 763.19751,190.88361 C 758.11764,192.1508 754.76534,190.25427 753.44987,185.36898 C 752.72805,182.68834 752.77649,180.89035 753.62044,179.03808 C 754.26872,177.61525 754.50881,176.16078 754.15397,175.80593 C 753.79912,175.45109 750.23852,175.73194 746.24152,176.43005 C 742.24453,177.12816 736.74951,178.08206 734.03037,178.54984 C 728.66953,179.47206 724.47426,178.87064 724.47426,177.17989 C 724.47426,176.59532 723.73828,175.3038 722.83876,174.30983 C 721.93923,173.31586 721.15173,171.48043 721.08876,170.23109 C 720.99274,168.32624 720.32856,167.90643 716.97426,167.6304 C 712.10137,167.22941 706.62538,168.76171 703.38731,171.43231 C 700.54566,173.77598 700.66782,173.6818 692.97426,179.45956 C 685.42896,185.12597 684.71576,185.68074 683.01098,187.20956 C 682.24436,187.89706 681.35997,188.45956 681.04569,188.45956 C 680.7314,188.45956 679.60651,189.24706 678.54594,190.20956 C 674.97373,193.45142 673.56325,194.45956 672.5998,194.45956 C 672.07242,194.45956 671.49093,194.8176 671.30759,195.25521 C 671.0087,195.96867 666.93331,199.15879 658.91029,204.95956 C 657.38888,206.05956 655.63388,207.46371 655.01028,208.07989 C 654.38668,208.69606 652.41282,209.95709 650.62391,210.88217 C 648.83501,211.80725 647.12137,213.2156 646.81582,214.01185 C 646.51028,214.80809 645.73765,215.45956 645.09888,215.45956 C 643.76371,215.45956 633.47426,225.32889 633.47426,226.60954 C 633.47426,227.07705 632.97672,227.45956 632.36862,227.45956 C 631.76051,227.45956 629.92599,228.58456 628.29189,229.95956 C 626.6578,231.33456 625.01784,232.38754 624.64753,232.29952 C 624.27723,232.2115 622.54527,231.96049 620.79873,231.74172 z M 606.73664,163.72004 C 602.91336,161.8169 601.90835,158.23164 602.79366,149.65383 C 603.23226,145.40422 603.93017,143.61582 605.67341,142.27446 C 608.49198,140.10567 611.4613,139.98252 614.03313,141.92776 C 615.10075,142.73526 616.72194,143.41026 617.63578,143.42776 C 618.64621,143.4471 619.19109,144.14531 619.02626,145.20956 C 618.8772,146.17206 619.06936,147.82792 619.45329,148.88925 C 620.40029,151.5071 618.12386,161.95282 616.1835,163.89318 C 614.2177,165.85897 610.9119,165.79839 606.73664,163.72004 z M 509.77914,156.81169 C 509.49377,156.06802 508.68591,155.45956 507.9839,155.45956 C 506.59402,155.45956 505.50947,152.41267 505.48791,148.44744 C 505.45455,142.30857 512.71652,124.50454 517.7243,118.44777 C 520.50231,115.08784 530.29626,107.45956 531.83207,107.45956 C 532.73528,107.45956 533.47426,106.983 533.47426,106.40054 C 533.47426,105.81808 533.87327,105.58813 534.36095,105.88953 C 534.84863,106.19094 535.80373,105.76749 536.4834,104.94855 C 537.16306,104.12961 538.17726,103.45956 538.73717,103.45956 C 540.98955,103.45956 548.56148,98.962456 550.21312,96.643796 C 551.18175,95.283986 553.87769,91.981436 556.20411,89.304796 C 558.53052,86.628156 561.08835,83.172716 561.88817,81.626036 C 563.99684,77.548326 565.67381,76.476896 570.75167,75.963076 C 574.20386,75.613766 575.41803,75.870636 575.86895,77.045706 C 576.20369,77.918026 576.9707,78.270776 577.63714,77.858896 C 578.39874,77.388196 578.61645,77.646646 578.254,78.591176 C 577.3691,80.897166 582.56936,80.780236 588.1224,78.369276 C 599.65059,73.364106 604.81105,72.548116 609.52392,74.985236 C 612.02444,76.278306 612.47426,77.104386 612.47426,80.403456 C 612.47426,85.948106 611.9359,86.860186 605.92669,91.496256 C 599.35091,96.569436 598.40741,98.832526 601.76654,101.47483 C 603.11626,102.53651 604.95265,104.94791 605.84741,106.83349 C 609.42633,114.3755 607.14753,121.36063 598.42569,129.58306 C 592.94494,134.74998 592.23229,135.81668 593.28949,137.27098 C 596.28551,141.39234 598.26878,146.84004 597.51078,148.86615 C 596.89105,150.52265 595.91851,150.93981 592.85093,150.86492 C 586.10711,150.70029 578.11777,149.44792 573.8212,147.8819 C 569.39529,146.26874 567.78445,143.3157 569.04418,139.12452 C 569.93925,136.14656 575.32354,130.63822 579.09659,128.84051 C 580.81387,128.02229 584.52637,125.16361 587.34659,122.48789 C 591.18324,118.84781 592.4704,116.90999 592.45895,114.79125 C 592.43893,111.0891 591.79665,110.26699 586.72426,107.45084 C 582.3694,105.03306 582.02067,104.32696 582.4071,98.709556 C 582.53028,96.918806 582.14775,95.459556 581.55513,95.459556 C 579.94585,95.459556 567.0258,101.67063 566.64093,102.62928 C 566.45759,103.08593 565.8681,103.45956 565.33094,103.45956 C 563.80548,103.45956 555.55197,110.03881 549.24159,116.2851 C 540.67627,124.76344 539.47588,126.0859 539.45698,127.0648 C 539.44748,127.55692 538.33185,129.01028 536.9778,130.29449 C 535.62374,131.5787 532.85186,135.4037 530.81805,138.79449 C 528.78424,142.18528 525.91196,146.367 524.43521,148.08721 C 522.95846,149.80742 521.12827,152.61992 520.36812,154.33721 C 519.60798,156.0545 518.30839,157.53 517.48015,157.61608 C 511.93225,158.19274 510.24132,158.01612 509.77914,156.81169 z M 460.47304,150.20956 C 460.47076,147.87536 455.75882,143.46647 452.5889,142.83249 C 450.85296,142.4853 449.18591,141.80202 448.88435,141.31409 C 448.58279,140.82615 447.96616,140.65555 447.51405,140.93497 C 447.06194,141.21439 445.04765,139.62287 443.03785,137.39827 C 439.12494,133.06714 436.15441,132.74124 434.95769,136.51177 C 433.94626,139.6985 431.01591,140.6825 426.31049,139.41546 C 424.025,138.80004 421.17026,137.65125 419.9666,136.86259 C 418.76295,136.07392 413.99727,134.94013 409.3762,134.34305 C 404.75513,133.74597 399.49649,132.62792 397.69033,131.8585 C 393.49611,130.07178 390.59913,130.09161 386.18177,131.9373 C 383.64644,132.99663 381.8422,133.15147 379.80964,132.48417 C 374.91419,130.87695 370.10106,130.5244 368.71855,131.67178 C 367.2505,132.89015 355.0683,133.37434 353.94518,132.25896 C 353.55718,131.87363 353.00859,129.5078 352.72611,127.00157 C 352.2985,123.20791 352.65308,121.80903 354.84338,118.64843 C 356.29036,116.56042 357.47426,114.3253 357.47426,113.68149 C 357.47426,111.88776 362.94734,109.45956 366.99034,109.45956 C 371.77304,109.45956 374.06467,108.1139 375.95399,104.19606 C 377.01726,101.99117 379.02232,100.27254 382.2445,98.804146 C 384.84587,97.618666 389.15141,94.918666 391.81237,92.804146 C 398.00872,87.880226 412.25441,73.808606 419.97426,64.986366 C 431.56778,51.737286 433.89262,50.405736 438.2857,54.498516 C 441.48646,57.480476 440.74752,65.648236 436.85072,70.359736 C 431.57381,76.739896 419.4341,88.459556 418.10219,88.459556 C 417.20683,88.459556 416.47426,88.888446 416.47426,89.412636 C 416.47426,89.936836 414.85917,91.132126 412.88518,92.068856 C 410.91118,93.005576 408.77793,94.601686 408.14463,95.615766 C 407.51132,96.629856 406.61999,97.459556 406.16389,97.459556 C 404.1196,97.459556 395.03356,104.38028 386.87512,112.15158 C 379.10663,119.55142 382.20361,121.31603 394.44736,116.46613 C 398.06719,115.03227 400.04525,114.67253 400.28898,115.40373 C 401.02338,117.60691 408.16945,119.62337 417.22372,120.18233 C 423.17075,120.54947 426.87414,121.23646 427.59617,122.10645 C 428.37538,123.04534 431.26373,123.45956 437.03133,123.45956 C 441.60303,123.45956 448.41043,124.08164 452.15888,124.84197 C 455.90734,125.6023 459.64926,126.20252 460.47426,126.17581 C 461.29926,126.14909 463.65467,126.92491 465.7085,127.89986 C 475.31814,132.46151 476.04615,145.06793 466.95412,149.46931 C 462.202,151.76977 460.47476,151.96705 460.47304,150.20956 z M 451.69126,114.85186 C 446.36013,108.94859 450.53264,100.1886 458.74762,100.03735 C 461.07127,99.994556 463.01056,100.40956 463.05714,100.95956 C 463.10373,101.50956 463.68329,103.27015 464.34506,104.87198 C 467.01932,111.34516 464.60882,116.25918 458.44038,116.90923 C 454.60611,117.31329 453.65127,117.02222 451.69126,114.85186 z" /></svg>
