<?xml version="1.0" encoding="UTF-8" standalone="no"?>
<svg
   height="560"
   viewBox="0 0 1920 560"
   width="1920"
   version="1.1"
   id="svg23"
   sodipodi:docname="bibliography-builder-banner.svg"
   inkscape:version="1.4.3 (0d15f75, 2025-12-25)"
   xmlns:inkscape="http://www.inkscape.org/namespaces/inkscape"
   xmlns:sodipodi="http://sodipodi.sourceforge.net/DTD/sodipodi-0.dtd"
   xmlns="http://www.w3.org/2000/svg"
   xmlns:svg="http://www.w3.org/2000/svg">
  <defs
     id="defs23" />
  <sodipodi:namedview
     id="namedview23"
     pagecolor="#ffffff"
     bordercolor="#000000"
     borderopacity="0.25"
     inkscape:showpageshadow="2"
     inkscape:pageopacity="0.0"
     inkscape:pagecheckerboard="0"
     inkscape:deskcolor="#d1d1d1"
     inkscape:zoom="0.45833333"
     inkscape:cx="964.36364"
     inkscape:cy="279.27273"
     inkscape:window-width="1171"
     inkscape:window-height="661"
     inkscape:window-x="2"
     inkscape:window-y="267"
     inkscape:window-maximized="0"
     inkscape:current-layer="svg23" />
  <path
     d="m0 0h1920v560h-1920z"
     fill="#f5f3ef"
     id="path1" />
  <g
     fill="none"
     opacity=".14"
     stroke="#2d3136"
     stroke-width="2"
     transform="translate(-154.90909 28.363636)"
     id="g12">
    <path
       d="m1460 1146h-1000l-500-866 500-866h1000l500 866z"
       id="path2" />
    <path
       d="m1340 938h-760l-380-658 380-658h760l380 658z"
       id="path3" />
    <path
       d="m1240 765h-560l-280-485 280-485h560l280 485z"
       id="path4" />
    <path
       d="m1160 626h-400l-200-346 200-346h400l200 346z"
       id="path5" />
    <path
       d="m1100 522h-280l-140-242 140-242h280l140 242z"
       id="path6" />
    <path
       d="m1055 445h-190l-95-165 95-165h190l95 165z"
       id="path7" />
    <path
       d="m1024 391h-128l-64-111 64-111h128l64 111z"
       id="path8" />
    <path
       d="m1003 354h-86l-43-74 43-74h86l43 74z"
       id="path9" />
    <path
       d="m989 330h-58l-29-50 29-50h58l29 50z"
       id="path10" />
    <path
       d="m980 315h-40l-20-35 20-35h40l20 35z"
       id="path11" />
    <path
       d="m974 304h-28l-14-24 14-24h28l14 24z"
       id="path12" />
  </g>
  <g
     transform="matrix(1.63662851953 .11444420859 -.11444420859 1.63662851953 188.9805959375 113.09732257813)"
     id="g14">
    <rect
       fill="#2d3136"
       height="148"
       rx="2"
       width="42"
       id="rect12" />
    <rect
       fill="#23272b"
       height="148"
       rx="1"
       width="5"
       id="rect13" />
    <rect
       fill="#fff"
       height="8"
       opacity=".85"
       rx="1.5"
       width="20"
       x="12"
       y="68"
       id="rect14" />
  </g>
  <g
     stroke-width="1.640625"
     id="g21">
    <rect
       fill="#7b8fa1"
       height="255.9375"
       rx="1.640625"
       width="22.96875"
       x="247.34375"
       y="104.1875"
       id="rect15" />
    <rect
       fill="#2d3136"
       height="255.9375"
       rx="3.28125"
       width="65.625"
       x="263.75"
       y="104.1875"
       id="rect16" />
    <rect
       fill="#23272b"
       height="255.9375"
       rx="1.640625"
       width="8.203125"
       x="263.75"
       y="104.1875"
       id="rect17" />
    <rect
       fill="#fff"
       height="13.125"
       opacity=".85"
       rx="2.4609375"
       width="32.8125"
       x="283.4375"
       y="222.3125"
       id="rect18" />
    <rect
       fill="#2d3136"
       height="236.25"
       rx="3.28125"
       width="68.90625"
       x="335.9375"
       y="123.875"
       id="rect19" />
    <rect
       fill="#23272b"
       height="236.25"
       rx="1.640625"
       width="8.203125"
       x="335.9375"
       y="123.875"
       id="rect20" />
    <rect
       fill="#fff"
       height="13.125"
       opacity=".85"
       rx="2.4609375"
       width="32.8125"
       x="355.625"
       y="232.15625"
       id="rect21" />
  </g>
  <rect
     fill="#c4973e"
     height="7"
     rx="1"
     width="1198"
     x="152"
     y="360"
     id="rect22" />
  <text
     style="font-style:italic;font-weight:400;font-size:52px;font-family:'Libre Baskerville', Baskerville, 'Liberation Serif', 'Times New Roman', serif;text-anchor:end;fill:#3d4a57"
     x="817.18182"
     y="432.81818"
     id="text22">The library will endure;</text>
  <text
     fill="#3d4a57"
     font-family="'Libre Baskerville', Baskerville, 'Liberation Serif', 'Times New Roman', serif"
     font-size="52px"
     font-style="italic"
     font-weight="400"
     x="947.09082"
     y="437.18179"
     id="text23">it is the universe...</text>
  <path
     fill="#B91C1C"
     transform="matrix(3.3647 -.5933 .3126 1.7727 -1310.19 409.48)"
     d="M 509.77914,156.81169 C 509.49377,156.06802 508.68591,155.45956 507.9839,155.45956 C 506.59402,155.45956 505.50947,152.41267 505.48791,148.44744 C 505.45455,142.30857 512.71652,124.50454 517.7243,118.44777 C 520.50231,115.08784 530.29626,107.45956 531.83207,107.45956 C 532.73528,107.45956 533.47426,106.983 533.47426,106.40054 C 533.47426,105.81808 533.87327,105.58813 534.36095,105.88953 C 534.84863,106.19094 535.80373,105.76749 536.4834,104.94855 C 537.16306,104.12961 538.17726,103.45956 538.73717,103.45956 C 540.98955,103.45956 548.56148,98.962456 550.21312,96.643796 C 551.18175,95.283986 553.87769,91.981436 556.20411,89.304796 C 558.53052,86.628156 561.08835,83.172716 561.88817,81.626036 C 563.99684,77.548326 565.67381,76.476896 570.75167,75.963076 C 574.20386,75.613766 575.41803,75.870636 575.86895,77.045706 C 576.20369,77.918026 576.9707,78.270776 577.63714,77.858896 C 578.39874,77.388196 578.61645,77.646646 578.254,78.591176 C 577.3691,80.897166 582.56936,80.780236 588.1224,78.369276 C 599.65059,73.364106 604.81105,72.548116 609.52392,74.985236 C 612.02444,76.278306 612.47426,77.104386 612.47426,80.403456 C 612.47426,85.948106 611.9359,86.860186 605.92669,91.496256 C 599.35091,96.569436 598.40741,98.832526 601.76654,101.47483 C 603.11626,102.53651 604.95265,104.94791 605.84741,106.83349 C 609.42633,114.3755 607.14753,121.36063 598.42569,129.58306 C 592.94494,134.74998 592.23229,135.81668 593.28949,137.27098 C 596.28551,141.39234 598.26878,146.84004 597.51078,148.86615 C 596.89105,150.52265 595.91851,150.93981 592.85093,150.86492 C 586.10711,150.70029 578.11777,149.44792 573.8212,147.8819 C 569.39529,146.26874 567.78445,143.3157 569.04418,139.12452 C 569.93925,136.14656 575.32354,130.63822 579.09659,128.84051 C 580.81387,128.02229 584.52637,125.16361 587.34659,122.48789 C 591.18324,118.84781 592.4704,116.90999 592.45895,114.79125 C 592.43893,111.0891 591.79665,110.26699 586.72426,107.45084 C 582.3694,105.03306 582.02067,104.32696 582.4071,98.709556 C 582.53028,96.918806 582.14775,95.459556 581.55513,95.459556 C 579.94585,95.459556 567.0258,101.67063 566.64093,102.62928 C 566.45759,103.08593 565.8681,103.45956 565.33094,103.45956 C 563.80548,103.45956 555.55197,110.03881 549.24159,116.2851 C 540.67627,124.76344 539.47588,126.0859 539.45698,127.0648 C 539.44748,127.55692 538.33185,129.01028 536.9778,130.29449 C 535.62374,131.5787 532.85186,135.4037 530.81805,138.79449 C 528.78424,142.18528 525.91196,146.367 524.43521,148.08721 C 522.95846,149.80742 521.12827,152.61992 520.36812,154.33721 C 519.60798,156.0545 518.30839,157.53 517.48015,157.61608 C 511.93225,158.19274 510.24132,158.01612 509.77914,156.81169 z M 606.73664,163.72004 C 602.91336,161.8169 601.90835,158.23164 602.79366,149.65383 C 603.23226,145.40422 603.93017,143.61582 605.67341,142.27446 C 608.49198,140.10567 611.4613,139.98252 614.03313,141.92776 C 615.10075,142.73526 616.72194,143.41026 617.63578,143.42776 C 618.64621,143.4471 619.19109,144.14531 619.02626,145.20956 C 618.8772,146.17206 619.06936,147.82792 619.45329,148.88925 C 620.40029,151.5071 618.12386,161.95282 616.1835,163.89318 C 614.2177,165.85897 610.9119,165.79839 606.73664,163.72004 z M 620.79873,231.74172 C 616.7007,231.2284 615.12096,229.23739 615.28792,224.7962 C 615.49425,219.30783 619.793,212.75857 625.68264,208.95956 C 630.8135,205.64999 641.27683,198.44197 642.97426,197.04763 C 644.07426,196.14405 647.22426,193.95459 649.97426,192.18216 C 654.94017,188.98153 668.39226,179.46118 675.34466,174.22695 C 677.34094,172.72402 679.64926,171.17516 680.47426,170.78504 C 683.59868,169.30761 694.13368,161.70891 697.97426,158.16261 C 700.17426,156.13119 702.31176,154.46697 702.72426,154.46434 C 703.13676,154.46171 703.47426,153.78456 703.47426,152.95956 C 703.47426,152.13456 702.87078,151.45956 702.13319,151.45956 C 700.76293,151.45956 699.37913,151.87116 681.97426,157.45572 C 676.47426,159.22045 668.83056,161.5007 664.98826,162.52293 L 658.00226,164.38154 L 655.43354,161.92055 C 652.27461,158.8941 646.58401,158.57582 644.12925,161.2883 C 643.219,162.29411 642.47426,163.45125 642.47426,163.85973 C 642.47426,164.26821 641.79926,165.27742 640.97426,166.10242 C 640.14926,166.92742 639.47426,168.47027 639.47426,169.53099 C 639.47426,171.0684 638.76438,171.45956 635.97426,171.45956 C 628.1569,171.45956 626.27484,164.0097 631.34146,153.1213 C 635.14424,144.94895 637.18307,143.26205 643.63237,142.95196 C 647.93034,142.74531 649.15298,143.07618 650.57342,144.83034 C 651.97855,146.5656 653.3778,146.9575 658.13591,146.94844 C 661.347,146.94232 666.44926,146.17693 669.47426,145.24757 C 672.49926,144.31821 677.67426,142.88213 680.97426,142.05629 C 684.27426,141.23044 690.34926,139.59238 694.47426,138.41614 C 701.19133,136.50078 707.54754,134.89982 721.34817,131.64731 C 725.34194,130.70606 725.92859,130.82298 728.09817,132.99256 C 731.85487,136.74926 730.76637,143.17027 725.57664,147.86691 C 722.45569,150.69133 723.00474,151.55827 727.46296,150.84538 C 733.45993,149.88642 736.93517,151.75946 738.95062,157.03683 C 740.8342,161.96891 742.77973,162.61597 747.13847,159.76001 C 748.72553,158.72013 751.80671,158.04088 755.07672,158.01001 C 759.881,157.96466 760.72701,158.29426 763.4477,161.27128 C 765.11231,163.09272 766.47426,165.00522 766.47426,165.52128 C 766.47426,166.03733 766.86571,166.45956 767.34415,166.45956 C 767.8226,166.45956 768.7292,169.07802 769.35883,172.27837 C 770.33693,177.24995 770.2414,178.96078 768.70271,184.02837 C 767.0323,189.52981 766.63341,190.02651 763.19751,190.88361 C 758.11764,192.1508 754.76534,190.25427 753.44987,185.36898 C 752.72805,182.68834 752.77649,180.89035 753.62044,179.03808 C 754.26872,177.61525 754.50881,176.16078 754.15397,175.80593 C 753.79912,175.45109 750.23852,175.73194 746.24152,176.43005 C 742.24453,177.12816 736.74951,178.08206 734.03037,178.54984 C 728.66953,179.47206 724.47426,178.87064 724.47426,177.17989 C 724.47426,176.59532 723.73828,175.3038 722.83876,174.30983 C 721.93923,173.31586 721.15173,171.48043 721.08876,170.23109 C 720.99274,168.32624 720.32856,167.90643 716.97426,167.6304 C 712.10137,167.22941 706.62538,168.76171 703.38731,171.43231 C 700.54566,173.77598 700.66782,173.6818 692.97426,179.45956 C 685.42896,185.12597 684.71576,185.68074 683.01098,187.20956 C 682.24436,187.89706 681.35997,188.45956 681.04569,188.45956 C 680.7314,188.45956 679.60651,189.24706 678.54594,190.20956 C 674.97373,193.45142 673.56325,194.45956 672.5998,194.45956 C 672.07242,194.45956 671.49093,194.8176 671.30759,195.25521 C 671.0087,195.96867 666.93331,199.15879 658.91029,204.95956 C 657.38888,206.05956 655.63388,207.46371 655.01028,208.07989 C 654.38668,208.69606 652.41282,209.95709 650.62391,210.88217 C 648.83501,211.80725 647.12137,213.2156 646.81582,214.01185 C 646.51028,214.80809 645.73765,215.45956 645.09888,215.45956 C 643.76371,215.45956 633.47426,225.32889 633.47426,226.60954 C 633.47426,227.07705 632.97672,227.45956 632.36862,227.45956 C 631.76051,227.45956 629.92599,228.58456 628.29189,229.95956 C 626.6578,231.33456 625.01784,232.38754 624.64753,232.29952 C 624.27723,232.2115 622.54527,231.96049 620.79873,231.74172 z"
     id="path23"
     style="fill:#4f4f4f;fill-opacity:1" />
</svg>
