<?xml version="1.0" encoding="UTF-8" standalone="no"?>
<svg
   height="560"
   viewBox="0 0 1920 560"
   width="1920"
   version="1.1"
   id="svg23"
   sodipodi:docname="bibliography-builder-banner.svg"
   inkscape:version="1.4.3 (0d15f75, 2025-12-25)"
   xml:space="preserve"
   xmlns:inkscape="http://www.inkscape.org/namespaces/inkscape"
   xmlns:sodipodi="http://sodipodi.sourceforge.net/DTD/sodipodi-0.dtd"
   xmlns="http://www.w3.org/2000/svg"
   xmlns:svg="http://www.w3.org/2000/svg">
<defs>  <filter id="rough-ink" x="-3%" y="-3%" width="106%" height="106%">
    <feTurbulence type="fractalNoise" baseFrequency="0.035 0.065" numOctaves="3" seed="12" result="noise"/>
    <feDisplacementMap in="SourceGraphic" in2="noise" scale="2.5" xChannelSelector="R" yChannelSelector="G"/>
  </filter>
</defs><defs
   id="defs23" /><sodipodi:namedview
   id="namedview23"
   pagecolor="#ffffff"
   bordercolor="#000000"
   borderopacity="0.25"
   inkscape:showpageshadow="2"
   inkscape:pageopacity="0.0"
   inkscape:pagecheckerboard="0"
   inkscape:deskcolor="#d1d1d1"
   inkscape:zoom="0.53854167"
   inkscape:cx="948.85879"
   inkscape:cy="393.6557"
   inkscape:window-width="1190"
   inkscape:window-height="661"
   inkscape:window-x="68"
   inkscape:window-y="267"
   inkscape:window-maximized="0"
   inkscape:current-layer="svg23" /><path
   d="m0 0h1920v560h-1920z"
   fill="#f5f3ef"
   id="path1" /><g
   fill="none"
   opacity=".14"
   stroke="#2d3136"
   stroke-width="2"
   transform="translate(-154.90909 28.363636)"
   id="g12"><path
     d="m1460 1146h-1000l-500-866 500-866h1000l500 866z"
     id="path2" /><path
     d="m1340 938h-760l-380-658 380-658h760l380 658z"
     id="path3" /><path
     d="m1240 765h-560l-280-485 280-485h560l280 485z"
     id="path4" /><path
     d="m1160 626h-400l-200-346 200-346h400l200 346z"
     id="path5" /><path
     d="m1100 522h-280l-140-242 140-242h280l140 242z"
     id="path6" /><path
     d="m1055 445h-190l-95-165 95-165h190l95 165z"
     id="path7" /><path
     d="m1024 391h-128l-64-111 64-111h128l64 111z"
     id="path8" /><path
     d="m1003 354h-86l-43-74 43-74h86l43 74z"
     id="path9" /><path
     d="m989 330h-58l-29-50 29-50h58l29 50z"
     id="path10" /><path
     d="m980 315h-40l-20-35 20-35h40l20 35z"
     id="path11" /><path
     d="m974 304h-28l-14-24 14-24h28l14 24z"
     id="path12" /></g><g
   transform="matrix(1.6366285,0.11444421,-0.11444421,1.6366285,53.429342,139.09345)"
   id="g14"><rect
     fill="#2d3136"
     height="148"
     rx="2"
     width="42"
     id="rect12"
     x="0"
     y="0" /><rect
     fill="#23272b"
     height="148"
     rx="1"
     width="5"
     id="rect13"
     x="0"
     y="0" /><rect
     fill="#ffffff"
     height="8"
     opacity="0.85"
     rx="1.5"
     width="20"
     x="12"
     y="68"
     id="rect14" /></g><g
   stroke-width="1.64062"
   id="g21"
   transform="translate(-135.55126,25.996132)"><rect
     fill="#7b8fa1"
     height="255.9375"
     rx="1.640625"
     width="22.96875"
     x="247.34375"
     y="104.1875"
     id="rect15" /><rect
     fill="#2d3136"
     height="255.9375"
     rx="3.28125"
     width="65.625"
     x="263.75"
     y="104.1875"
     id="rect16" /><rect
     fill="#23272b"
     height="255.9375"
     rx="1.640625"
     width="8.203125"
     x="263.75"
     y="104.1875"
     id="rect17" /><rect
     fill="#ffffff"
     height="13.125"
     opacity="0.85"
     rx="2.4609375"
     width="32.8125"
     x="283.4375"
     y="222.3125"
     id="rect18" /><rect
     fill="#2d3136"
     height="236.25"
     rx="3.28125"
     width="68.90625"
     x="335.9375"
     y="123.875"
     id="rect19" /><rect
     fill="#23272b"
     height="236.25"
     rx="1.640625"
     width="8.203125"
     x="335.9375"
     y="123.875"
     id="rect20" /><rect
     fill="#ffffff"
     height="13.125"
     opacity="0.85"
     rx="2.4609375"
     width="32.8125"
     x="355.625"
     y="232.15625"
     id="rect21" /></g><rect
   fill="#c4973e"
   height="7"
   rx="1.0933368"
   width="1692.4855"
   x="16.448755"
   y="385.99612"
   id="rect22"
   style="stroke-width:1.04563" /><text
   style="font-style:italic;font-weight:400;font-size:52px;font-family:'Libre Baskerville', Baskerville, 'Liberation Serif', 'Times New Roman', serif;text-anchor:end;fill:#3d4a57"
   x="681.63055"
   y="458.8143"
   id="text22">The library will endure;</text><text
   fill="#3d4a57"
   font-family="'Libre Baskerville', Baskerville, 'Liberation Serif', 'Times New Roman', serif"
   font-size="52px"
   font-style="italic"
   font-weight="400"
   x="811.53955"
   y="463.17792"
   id="text23">it is the universe...</text><!-- Vertical gold separator --><!-- Feature panel heading --><text
   x="1219.3578"
   y="163.99612"
   font-family="'Libre Baskerville', Baskerville, 'Liberation Serif', 'Times New Roman', serif"
   font-size="33px"
   font-weight="700"
   fill="#2d3136"
   id="text1"
   style="font-weight:700;font-size:33px;font-family:'Libre Baskerville', Baskerville, 'Liberation Serif', 'Times New Roman', serif;fill:#2d3136"><tspan
     style="font-style:normal;font-variant:normal;font-weight:bold;font-stretch:normal;font-size:32px;font-family:'Libre Baskerville', Baskerville, 'Liberation Serif', 'Times New Roman', serif;-inkscape-font-specification:'Libre Baskerville, Baskerville, Liberation Serif, Times New Roman, serif, Bold';font-variant-ligatures:normal;font-variant-caps:normal;font-variant-numeric:normal;font-variant-east-asian:normal"
     id="tspan29">The Bibliography Builder Block</tspan></text><!-- Gold hairline under heading --><rect
   x="1219.3578"
   y="177.99612"
   width="488"
   height="1.5"
   fill="#c4973e"
   id="rect2" /><!-- Feature list --><text
   x="1241.6401"
   y="215.13925"
   font-family="'Libre Baskerville', Baskerville, 'Liberation Serif', 'Times New Roman', serif"
   font-size="25px"
   font-weight="400"
   id="text3"><tspan
   style="font-weight:bold"
   id="tspan24">Paste DOIs</tspan><tspan
   style="font-weight:bold"
   id="tspan2">•</tspan> Citations resolved instantly</text><text
   x="1241.6401"
   y="252.13925"
   font-family="'Libre Baskerville', Baskerville, 'Liberation Serif', 'Times New Roman', serif"
   font-size="25px"
   font-weight="400"
   id="text5"><tspan
   style="font-weight:bold"
   id="tspan25">Nine styles:</tspan> Chicago, APA 7, MLA 9, IEEE</text><text
   x="1241.6401"
   y="289.13925"
   font-family="'Libre Baskerville', Baskerville, 'Liberation Serif', 'Times New Roman', serif"
   font-size="25px"
   font-weight="400"
   id="text7"><tspan
   style="font-weight:bold"
   id="tspan26">Zotero-ready</tspan><tspan
   style="font-weight:bold"
   id="tspan1">•</tspan> COinS &amp; JSON-LD</text><text
   x="1241.6401"
   y="326.13925"
   font-family="'Libre Baskerville', Baskerville, 'Liberation Serif', 'Times New Roman', serif"
   font-size="25px"
   font-weight="400"
   id="text9"><tspan
   style="font-weight:bold"
   id="tspan27">Export:</tspan> BibTeX, CSL-JSON, or RIS</text><text
   x="1241.6401"
   y="363.13925"
   font-family="'Libre Baskerville', Baskerville, 'Liberation Serif', 'Times New Roman', serif"
   font-size="25px"
   font-weight="400"
   id="text11"><tspan
   style="font-weight:bold"
   id="tspan28">Portable Semantic HTML</tspan> • No Lock-In</text><g
   id="g2"
   transform="matrix(2.8259277,-0.24290214,0.16033937,1.8653909,299.99145,179.27144)"><rect
     width="100%"
     height="100%"
     fill="none"
     id="rect1"
     x="0"
     y="0" /></g><g id="sig-borges"
   transform="matrix(0.05,0,0,-0.05,298.96518,526.12379)"
   filter="url(#rough-ink)">
  <path
     style="fill:#1a1a1a;fill-opacity:1"
     d="M3122 8233 c-82 -40 -153 -170 -303 -558 -397 -1029 -638 -1618 -698
-1708 -10 -16 -68 -81 -128 -146 -373 -396 -802 -963 -1160 -1531 -242 -385
-536 -935 -596 -1118 l-27 -81 0 -48 0 -48 18 -35 c9 -19 32 -45 51 -57 l34
-23 72 0 72 0 46 31 c75 49 205 168 318 290 594 643 907 1157 1409 2315 l113
262 66 92 66 93 95 82 c506 435 1089 720 1520 742 l95 5 68 -16 c123 -29 191
-79 234 -172 l25 -56 -6 -56 c-27 -230 -291 -541 -761 -894 -55 -41 -123 -89
-151 -107 l-52 -31 -16 -34 -16 -34 0 -54 0 -54 16 -22 c8 -12 29 -29 47 -38
l31 -17 106 7 105 7 75 -15 c281 -54 470 -253 470 -496 l0 -66 -21 -85 c-52
-205 -234 -517 -324 -555 -18 -7 -106 -32 -196 -54 -595 -148 -1041 -336
-1225 -516 l-55 -53 -26 -58 -27 -58 0 -60 0 -61 23 -48 24 -48 40 -29 c22
-16 66 -37 96 -46 l56 -17 105 0 105 1 85 17 c362 76 850 402 1137 759 l30 38
64 22 63 22 23 34 23 34 0 42 0 41 30 48 c96 150 182 335 221 470 l20 71 6
126 6 126 -18 79 c-54 247 -244 456 -501 550 -41 15 -74 32 -74 39 0 6 39 45
88 85 354 300 567 579 626 821 l16 65 0 95 c0 235 -112 391 -339 473 l-73 26
-94 10 -94 10 -117 -10 c-398 -32 -843 -214 -1310 -536 -84 -58 -113 -73 -113
-59 0 9 131 328 221 537 98 229 170 385 326 712 167 350 178 384 150 466 l-12
34 -34 23 -34 23 -51 0 -51 0 -33 -17z m-1428 -3235 c-251 -561 -661 -1193
-954 -1473 l-42 -40 7 25 c50 166 457 841 748 1240 274 375 319 421 241 248z
m1996 -1347 c0 -28 -224 -205 -361 -286 -175 -104 -392 -170 -493 -151 l-36 7
0 18 c0 77 383 276 740 384 122 37 150 43 150 28z
M12434 5236 c-171 -54 -389 -273 -544 -548 l-43 -77 -96 -52 c-566
-311 -894 -521 -1219 -782 -85 -68 -102 -77 -102 -54 1 46 174 511 303 812
116 271 121 322 43 393 -19 17 -42 44 -51 60 -10 15 -38 43 -64 60 l-46 31
-65 17 -65 16 -75 -6 c-158 -13 -300 -66 -465 -174 l-100 -65 -118 -119 c-65
-65 -125 -118 -133 -118 -8 0 -46 16 -84 35 -86 44 -188 71 -308 85 l-93 10
-112 -10 c-222 -21 -433 -98 -648 -236 -82 -52 -94 -51 -102 5 -3 22 -15 61
-27 86 l-22 46 -46 35 c-25 19 -70 42 -101 51 l-55 16 -96 -6 -95 -5 -89 -27
c-106 -31 -274 -107 -405 -183 l-93 -55 -19 -31 -19 -31 0 -53 c0 -64 11 -87
50 -107 64 -33 114 -21 238 59 144 93 349 176 434 176 l29 0 26 -26 26 -26 -7
-51 -6 -52 -43 -90 -44 -90 -118 -160 c-65 -88 -136 -189 -158 -224 l-41 -64
-3 -51 -4 -51 13 -25 c7 -13 29 -35 47 -47 l34 -23 44 0 c94 0 109 14 335 308
305 397 544 581 865 663 l88 23 100 0 100 1 75 -24 c86 -26 190 -79 190 -95 0
-6 -10 -31 -21 -56 -38 -81 -58 -148 -65 -218 l-6 -69 17 -59 17 -58 41 -42
42 -41 60 -23 60 -22 105 5 105 4 75 28 c92 33 183 82 272 146 37 27 73 49 79
49 l10 0 -6 -22 c-19 -64 -226 -640 -239 -665 -8 -16 -92 -101 -188 -189 -808
-744 -1182 -1116 -1419 -1411 -338 -420 -478 -763 -428 -1048 l10 -61 37 -69
37 -68 55 -38 55 -39 65 -16 65 -16 73 6 74 7 80 29 c514 188 1062 1040 1663
2585 l66 170 52 53 c125 129 478 411 737 589 216 149 676 433 700 433 6 0 10
-18 10 -41 0 -22 7 -71 16 -109 l15 -68 37 -53 c45 -64 110 -110 199 -141 l68
-23 175 0 175 0 84 18 c312 67 734 254 1431 632 407 221 484 262 597 319 62
31 120 56 128 56 36 0 177 -228 190 -308 l7 -42 -22 -46 -23 -46 -50 -40 c-57
-45 -178 -108 -372 -193 -71 -31 -165 -75 -207 -97 l-78 -40 -20 -33 c-11 -18
-23 -53 -26 -77 l-6 -46 11 -35 c27 -81 91 -115 271 -144 l105 -16 216 1 215
1 150 16 c640 68 1574 232 2519 441 175 39 620 148 673 165 l32 11 15 28 c8
16 15 45 15 65 l0 36 -25 24 -24 25 -38 0 c-21 0 -117 -18 -213 -39 -805 -180
-2116 -404 -2809 -481 -52 -6 -184 -15 -293 -20 l-198 -10 -22 9 -22 8 70 38
c139 76 219 130 284 192 l67 63 31 58 31 58 11 68 c24 149 -29 308 -170 516
-32 47 -65 102 -73 122 l-16 38 -33 19 c-18 11 -51 23 -75 27 l-42 6 -68 -21
-68 -21 -230 -123 c-126 -68 -351 -190 -500 -272 -581 -319 -1115 -555 -1398
-617 l-102 -22 -90 -1 -90 0 -50 25 -50 25 -23 35 -24 35 5 56 c3 30 15 78 27
107 l22 51 132 70 c73 38 174 94 224 126 l92 56 74 72 c81 79 108 124 125 207
l11 55 -10 53 c-17 91 -43 126 -120 161 l-45 21 -45 -1 c-25 0 -64 -6 -86 -13z
m-2029 -396 l6 -10 -58 -26 c-76 -34 -210 -84 -226 -84 -38 1 102 82 193 111
65 21 77 22 85 9z m-55 -301 c0 -21 -121 -149 -228 -241 -126 -109 -222 -172
-317 -210 -83 -32 -105 -34 -135 -10 l-23 19 1 31 c1 38 42 126 81 173 l29 35
44 13 c48 15 443 161 498 185 43 19 50 19 50 5z m-606 -1895 c-307 -756 -672
-1381 -999 -1710 l-130 -131 -70 -45 c-128 -84 -210 -106 -258 -68 l-25 20
-16 47 c-21 61 -20 103 4 199 l20 79 59 117 c179 356 615 860 1316 1522 l150
141 3 -16 c1 -9 -22 -79 -54 -155z
M6070 4725 l-65 -15 -113 -56 c-554 -275 -880 -980 -579 -1250 l49
-44 65 -20 65 -20 59 0 c415 0 918 471 1015 951 l16 81 -4 92 -4 91 -27 51
c-27 53 -75 102 -130 131 l-32 17 -125 3 -125 2 -65 -14z m190 -251 c83 -33
84 -115 3 -299 -124 -284 -433 -562 -648 -581 l-50 -5 -25 13 c-14 7 -35 33
-48 58 l-23 45 6 45 c37 276 332 615 628 720 66 23 106 24 157 4z" />
</g>
</svg>
